<svg aria-hidden="true" class="SVGInline-svg SVGInline--cleaned-svg SVG-svg Icon-svg Icon--checkCircle-svg Icon-color-svg Icon-color--gray-svg" height="32" width="32" viewBox="0 0 16 16" fill="none" xmlns="http://www.w3.org/2000/svg"><path fill-rule="evenodd" clip-rule="evenodd" d="M12.28 5.22a.75.75 0 0 1 0 1.06l-4.75 4.75a.75.75 0 0 1-1.06 0l-2.5-2.5a.75.75 0 0 1 1.06-1.06L7 9.44l4.22-4.22a.75.75 0 0 1 1.06 0Z"></path><path fill-rule="evenodd" clip-rule="evenodd" d="M8 14.5A6.5 6.5 0 0 0 14.5 8c0-3.592-2.9-6.5-6.5-6.5A6.5 6.5 0 0 0 1.5 8 6.5 6.5 0 0 0 8 14.5ZM8 16a8 8 0 0 0 8-8c0-4.419-3.57-8-8-8a8 8 0 0 0-8 8 8 8 0 0 0 8 8Z"></path></svg>